grf
version=1
nRows=6
nColumns=37
inDegrees=no
endheader
time	ground_force_1_vx	ground_force_1_vy	ground_force_1_vz	ground_force_1_px	ground_force_1_py	ground_force_1_pz	ground_moment_1_mx	ground_moment_1_my	ground_moment_1_mz	ground_force_2_vx	ground_force_2_vy	ground_force_2_vz	ground_force_2_px	ground_force_2_py	ground_force_2_pz	ground_moment_2_mx	ground_moment_2_my	ground_moment_2_mz	ground_force_3_vx	ground_force_3_vy	ground_force_3_vz	ground_force_3_px	ground_force_3_py	ground_force_3_pz	ground_moment_3_mx	ground_moment_3_my	ground_moment_3_mz	ground_force_4_vx	ground_force_4_vy	ground_force_4_vz	ground_force_4_px	ground_force_4_py	ground_force_4_pz	ground_moment_4_mx	ground_moment_4_my	ground_moment_4_mz
      1.76000000	      0.00000000	     -0.00000000	      0.00000000	      0.00000000	      0.00000000	      0.00000000	      0.00000000	      0.00000000	      0.00000000	    -12.75355244	      0.03566471	   -786.53173828	   -280.24624026	  -1134.81744916	      0.00000000	      0.00000000	      0.00000000	    195.35379844	      0.00000000	     -0.00000000	      0.00000000	      0.00000000	      0.00000000	      0.00000000	      0.00000000	      0.00000000	      0.00000000	    -35.00341275	     16.09048196	     75.34481812	    603.69823909	   -562.21163785	      0.00000000	      0.00000000	     -0.00000000	    -91.93062984
      1.77000000	      0.00000000	     -0.00000000	      0.00000000	      0.00000000	      0.00000000	      0.00000000	      0.00000000	      0.00000000	      0.00000000	    -11.42996216	     -0.26739120	   -782.22601318	   -278.64655679	  -1136.27537480	      0.00000000	      0.00000000	      0.00000000	     26.81894693	      0.00000000	     -0.00000000	      0.00000000	      0.00000000	      0.00000000	      0.00000000	      0.00000000	      0.00000000	      0.00000000	    -34.96447993	     16.25913735	     76.56163025	    602.24678515	   -563.70853710	      0.00000000	     -0.00000000	     -0.00000000	    -94.47297351
      1.78000000	      0.00000000	     -0.00000000	      0.00000000	      0.00000000	      0.00000000	      0.00000000	      0.00000000	      0.00000000	      0.00000000	    -10.22021484	     -2.35901165	   -783.45251465	   -277.55779449	  -1137.68978815	      0.00000000	      0.00000000	      0.00000000	     95.90258429	      0.00000000	     -0.00000000	      0.00000000	      0.00000000	      0.00000000	      0.00000000	      0.00000000	      0.00000000	      0.00000000	    -34.95298246	     15.96375389	     75.35554504	    609.42793850	   -564.13019202	      0.00000000	      0.00000000	     -0.00000000	    -20.75471841
      1.79000000	      0.00000000	     -0.00000000	      0.00000000	      0.00000000	      0.00000000	      0.00000000	      0.00000000	      0.00000000	      0.00000000	     -9.02169037	     -3.41209245	   -782.44750977	   -277.06640790	  -1138.64158563	      0.00000000	      0.00000000	      0.00000000	    204.34631054	      0.00000000	     -0.00000000	      0.00000000	      0.00000000	      0.00000000	      0.00000000	      0.00000000	      0.00000000	      0.00000000	    -34.95293286	     16.08071251	     75.80566406	    604.74143920	   -565.19363651	      0.00000000	      0.00000000	     -0.00000000	    -15.39041075
      1.80000000	      0.00000000	     -0.00000000	      0.00000000	      0.00000000	      0.00000000	      0.00000000	      0.00000000	      0.00000000	      0.00000000	    -11.89200878	     -5.59177685	   -780.32788086	   -276.91992330	  -1138.68123751	      0.00000000	      0.00000000	      0.00000000	    385.01288065	      0.00000000	     -0.00000000	      0.00000000	      0.00000000	      0.00000000	      0.00000000	      0.00000000	      0.00000000	      0.00000000	    -34.88880017	     16.09233589	     76.55952454	    601.53312144	   -563.58756530	      0.00000000	      0.00000000	     -0.00000000	    -51.62803160
      1.81000000	      0.00000000	     -0.00000000	      0.00000000	      0.00000000	      0.00000000	      0.00000000	      0.00000000	      0.00000000	      0.00000000	    -12.03005314	     -6.83778191	   -775.18280029	   -278.18235634	  -1139.09760267	      0.00000000	      0.00000000	      0.00000000	    441.72791163	      0.00000000	     -0.00000000	      0.00000000	      0.00000000	      0.00000000	      0.00000000	      0.00000000	      0.00000000	      0.00000000	    -34.74844218	     16.27132910	     76.00536346	    602.91954900	   -565.90980197	      0.00000000	      0.00000000	     -0.00000000	    -45.12076496
